<?xml version="1.0" encoding="UTF-8" standalone="no"?>
<!-- Created with Inkscape (http://www.inkscape.org/) -->

<svg
   xmlns:dc="http://purl.org/dc/elements/1.1/"
   xmlns:cc="http://creativecommons.org/ns#"
   xmlns:rdf="http://www.w3.org/1999/02/22-rdf-syntax-ns#"
   xmlns:svg="http://www.w3.org/2000/svg"
   xmlns="http://www.w3.org/2000/svg"
   xmlns:sodipodi="http://sodipodi.sourceforge.net/DTD/sodipodi-0.dtd"
   xmlns:inkscape="http://www.inkscape.org/namespaces/inkscape"
   width="63.767784mm"
   height="13.90625mm"
   viewBox="0 0 63.767783 13.90625"
   version="1.1"
   id="svg8"
   inkscape:version="0.92.1 r15371"
   sodipodi:docname="usa_logo.svg">
  <defs
     id="defs2" />
  <sodipodi:namedview
     id="base"
     pagecolor="#ffffff"
     bordercolor="#666666"
     borderopacity="1.0"
     inkscape:pageopacity="0.0"
     inkscape:pageshadow="2"
     inkscape:zoom="0.75696333"
     inkscape:cx="-108.81801"
     inkscape:cy="9.0920315"
     inkscape:document-units="mm"
     inkscape:current-layer="layer1"
     showgrid="false"
     fit-margin-top="1"
     fit-margin-left="1"
     fit-margin-right="1"
     fit-margin-bottom="1"
     inkscape:window-width="1920"
     inkscape:window-height="986"
     inkscape:window-x="-11"
     inkscape:window-y="-11"
     inkscape:window-maximized="1" />
  <metadata
     id="metadata5">
    <rdf:RDF>
      <cc:Work
         rdf:about="">
        <dc:format>image/svg+xml</dc:format>
        <dc:type
           rdf:resource="http://purl.org/dc/dcmitype/StillImage" />
        <dc:title></dc:title>
      </cc:Work>
    </rdf:RDF>
  </metadata>
  <g
     inkscape:label="Layer 1"
     inkscape:groupmode="layer"
     id="layer1"
     transform="translate(594.96944,-331.75678)">
    <g
       transform="matrix(0.113164,0,0,0.113164,-596.22879,316.15701)"
       id="layer1-0"
       inkscape:label="Layer 1"
       style="fill:#ffffff;fill-opacity:1;stroke-width:8.83673191">
      <g
         style="fill:#ffffff;fill-opacity:1;stroke-width:15.50303936"
         inkscape:label="Layer 1"
         id="layer1-7"
         transform="matrix(0.57,0,0,0.57,17.180013,86.95926)">
        <g
           style="fill:#ffffff;fill-opacity:1;stroke-width:15.50303936"
           id="g4502"
           transform="matrix(0.26458333,0,0,0.26458333,46.994632,133.19464)">
          <path
             id="path4485"
             d="m -106.19443,-101.01761 -3.18114,58.249512 -6.33869,21.17722 -14.83844,40.229456 -12.71397,19.06437 v 11.64506 l -4.23783,9.532162 3.18162,17.995789 -5.29451,14.826496 -9.53189,13.770085 5.30655,15.89502 -3.18162,25.41511 14.82641,33.89086 -1.05622,16.95152 8.47566,12.71363 -5.30655,10.58861 14.83843,31.76584 2.11291,23.3022 19.06469,8.46363 8.46363,12.71364 14.838426,3.18142 14.826409,22.23368 3.181616,22.24579 30.697437,4.2379 22.245375,1.05645 33.891103,25.41509 40.241343,21.17723 24.346721,5.3064 38.12846,4.23789 2.1254,-10.58861 39.18514,4.23787 5.30655,9.53222 11.64479,10.58861 3.18161,8.47571 14.8264,15.88294 4.24987,16.95152 10.58856,9.53217 16.95134,9.53215 8.46409,-8.46358 11.65681,-12.71358 h 20.09684 l 16.9393,15.88288 12.7135,31.77801 13.77019,12.70146 1.05621,14.82649 9.53234,16.95152 7.40696,4.23788 11.65729,3.18143 14.82639,2.12499 10.58855,3.18143 -6.35025,-25.41506 5.30609,-20.12082 12.70146,-13.77004 16.9518,-12.71363 15.89465,-8.46363 16.9518,-13.77005 15.88261,-6.35074 14.83891,-2.12502 20.10887,4.25001 18.00755,1.05645 15.88308,9.52003 12.71349,-1.05645 8.46363,-8.46358 13.77019,10.58861 4.23783,-5.29432 -10.57652,-10.60075 -2.12494,-11.64505 9.51984,-8.47572 16.9518,-1.05645 13.77019,1.05645 11.64477,-2.11289 24.35875,-4.25003 21.17712,12.71366 19.06423,-6.35074 8.4641,-4.23788 15.89465,8.47576 15.88308,10.5886 5.30655,33.89087 5.29405,10.5886 13.77016,14.82651 14.83845,20.12076 19.05218,13.7701 h 11.64525 l 5.30655,-12.71364 v -21.17722 l -7.40695,-22.24581 -9.53234,-14.8265 -12.70146,-25.41513 -14.83891,-23.30221 -7.40694,-21.17728 1.05622,-17.99579 6.35072,-16.95146 10.58857,-11.65719 11.64525,-12.70147 9.53234,-13.77008 5.30655,-13.77005 16.9393,-8.46362 3.18116,-11.6572 9.53234,-9.53216 18.00801,-10.58861 -5.30655,-7.40718 -4.23783,-6.35073 13.77018,-2.1129 2.12494,-9.53215 -6.35074,-11.6572 -4.32303,-15.93151 -11.64524,-8.47572 12.71395,-10.58861 7.40696,-17.99583 -1.05622,-14.82645 4.23783,-13.77009 6.33869,-15.89506 4.24988,-10.58862 -9.53235,-12.71359 9.53235,-6.3386 16.95134,-4.23788 12.70146,-11.65718 11.65728,-14.8265 10.57652,-11.645059 -11.64478,-15.895071 5.30609,-8.475761 -6.35073,-7.395 4.23783,-23.30225 14.82686,-8.47576 4.24988,-13.770038 h 9.51985 l 24.35874,-19.052239 -14.8264,-6.35073 -3.18162,-10.58861 -7.40694,-2.124982 -10.58857,-32.834416 h -17.99598 l -9.53234,-3.1693 -9.53189,22.233626 2.12494,22.233671 -6.35073,16.951472 -9.52031,5.306461 -2.16152,6.338645 -59.30559,16.951469 -15.89511,19.052192 -7.40742,8.47576 -3.18115,10.58861 -42.35424,13.770089 4.23735,16.939341 -20.12042,20.12077 -17.99598,4.25001 -20.12091,19.05224 -16.95133,-6.33859 1.06871,-8.47577 9.51985,-11.645007 2.12493,-28.59658 -11.64478,-39.185143 -22.24585,-10.588611 -7.4074,-6.35073 -6.35074,-8.4757599 -7.40695,-1.0563987 -74.12041,-38.1287394 -15.89511,11.65719 -12.71351,-5.30646 -13.77018,-1.056449 -10.58856,5.294329 -9.53235,-7.407225 -6.35072,2.125074 -10.57654,-13.770087 -15.89465,7.407179 -13.77018,-4.23788 c 0,0 -7.40741,-23.302205 -7.40741,-20.12082 0,3.181478 -4.23783,11.645061 -4.23783,11.645061 l -74.13245,2.125028 -49.77373,-4.237879 -57.19315,-3.181479 -58.24936,-5.294282 -59.30606,-10.600745 -51.886609,-9.52003 -55.068215,-11.657186 -43.410937,-9.52004 -37.072247,-8.47576 -1.056217,10.58861 -3.181616,8.46363 z"
             inkscape:connector-curvature="0"
             style="fill:#ffffff;fill-opacity:1;stroke-width:15.50303936"
             inkscape:transform-center-x="2175.3892"
             inkscape:transform-center-y="534.69162" />
        </g>
      </g>
      <text
         id="text4497"
         y="183.29848"
         x="215.88681"
         style="font-style:normal;font-variant:normal;font-weight:normal;font-stretch:normal;font-size:5.36222219px;line-height:1.25;font-family:sans-serif;-inkscape-font-specification:sans-serif;letter-spacing:0px;word-spacing:0px;writing-mode:lr-tb;fill:#ffffff;fill-opacity:1;stroke:none;stroke-width:2.3380518"
         xml:space="preserve"><tspan
           style="font-style:normal;font-variant:normal;font-weight:normal;font-stretch:normal;font-size:48.25999832px;font-family:Lato;-inkscape-font-specification:Lato;fill:#ffffff;fill-opacity:1;stroke-width:2.3380518"
           y="183.29848"
           x="215.88681"
           id="tspan4495"
           sodipodi:role="line">USA Sociological</tspan><tspan
           id="tspan4499"
           style="font-style:normal;font-variant:normal;font-weight:normal;font-stretch:normal;font-size:48.25999832px;font-family:Lato;-inkscape-font-specification:Lato;fill:#ffffff;fill-opacity:1;stroke-width:2.3380518"
           y="243.62347"
           x="215.88681"
           sodipodi:role="line">Indicators Map</tspan></text>
    </g>
  </g>
</svg>
